<svg width="15" height="17" viewBox="0 0 15 17" fill="none" xmlns="http://www.w3.org/2000/svg">
<path d="M0.27832 2.24121L0.27832 14.7588C0.27832 15.9946 1.28371 17 2.51953 17L12.4805 17C13.7163 17 14.7217 15.9946 14.7217 14.7588L14.7217 2.24121C14.7217 1.00539 13.7163 -5.87392e-07 12.4805 -5.33373e-07L2.51953 -9.79664e-08C1.28371 -4.3947e-08 0.27832 1.00539 0.27832 2.24121ZM12.4805 0.498046C13.4417 0.498046 14.2236 1.28001 14.2236 2.24121L14.2236 14.7588C14.2236 15.72 13.4417 16.502 12.4805 16.502L2.51953 16.502C1.55833 16.502 0.776367 15.72 0.776367 14.7588L0.776367 2.24121C0.776367 1.28001 1.55833 0.498047 2.51953 0.498047L12.4805 0.498046Z" fill="black"/>
<path d="M1.27441 2.24121L1.27441 14.7588C1.27441 15.4454 1.83296 16.0039 2.51953 16.0039L4.01367 16.0039C4.1512 16.0039 4.26269 15.8924 4.26269 15.7549C4.26269 15.6174 4.1512 15.5059 4.01367 15.5059L2.51953 15.5059C2.10758 15.5059 1.77246 15.1707 1.77246 14.7588L1.77246 10.9902L2.83227 10.9902C3.2331 10.9902 3.6162 10.7891 3.85709 10.4521C3.9547 10.3155 4.11318 10.2376 4.28106 10.2435C4.54555 10.2529 4.76071 10.4842 4.76071 10.7591L4.76071 15.7549C4.76071 15.8924 4.8722 16.0039 5.00973 16.0039L12.4804 16.0039C13.167 16.0039 13.7256 15.4454 13.7256 14.7588L13.7256 2.24121C13.7256 1.55464 13.167 0.996093 12.4804 0.996093L2.51953 0.996094C1.83296 0.996094 1.27441 1.55464 1.27441 2.24121ZM2.51953 1.49414L4.76074 1.49414L4.76074 6.24086C4.76074 6.51578 4.54559 6.74711 4.28109 6.7565C4.11321 6.76248 3.9547 6.68449 3.85709 6.54792C3.61623 6.21094 3.2331 6.00977 2.83227 6.00977L1.77246 6.00977L1.77246 2.24121C1.77246 1.82926 2.10758 1.49414 2.51953 1.49414ZM7.74902 5.99184L7.74902 1.49414L9.74121 1.49414L9.74121 5.99184L7.74902 5.99184ZM7.25098 5.99184L5.25879 5.99184L5.25879 1.49414L7.25098 1.49414L7.25098 5.99184ZM4.29875 9.74578C3.9635 9.73386 3.64694 9.88965 3.45191 10.1624C3.30432 10.3689 3.07269 10.4922 2.83227 10.4922L1.77246 10.4922L1.77246 6.50781L2.83227 6.50781C3.07269 6.50781 3.30432 6.63106 3.45191 6.83755C3.64694 7.11038 3.9635 7.26614 4.29875 7.25422C4.74417 7.23838 5.1196 6.91399 5.22751 6.48988L9.77242 6.48988C9.88033 6.91399 10.2558 7.23838 10.7012 7.25422C11.0365 7.26614 11.353 7.11035 11.5481 6.83755C11.6956 6.63106 11.9273 6.50781 12.1677 6.50781L13.2275 6.50781L13.2275 10.4922L12.1677 10.4922C11.9273 10.4922 11.6957 10.3689 11.5481 10.1624C11.3531 9.88962 11.0365 9.73386 10.7012 9.74578C10.2559 9.76162 9.8804 10.086 9.77249 10.5101L5.22754 10.5101C5.11963 10.086 4.74417 9.76162 4.29875 9.74578V9.74578ZM9.74121 11.0082L9.74121 15.5059L7.74902 15.5059L7.74902 11.0082L9.74121 11.0082ZM5.25879 11.0082L7.25098 11.0082L7.25098 15.5059L5.25879 15.5059L5.25879 11.0082ZM12.4805 15.5059L10.2393 15.5059L10.2393 10.7591C10.2393 10.4842 10.4544 10.2529 10.7189 10.2435C10.8868 10.2375 11.0453 10.3155 11.1429 10.4521C11.3838 10.7891 11.7669 10.9902 12.1677 10.9902L13.2275 10.9902L13.2275 14.7588C13.2275 15.1707 12.8924 15.5059 12.4805 15.5059ZM13.2275 2.24121L13.2275 6.00977L12.1677 6.00977C11.7669 6.00977 11.3838 6.21094 11.1429 6.54792C11.0453 6.68449 10.8868 6.76245 10.7189 6.7565C10.4544 6.74711 10.2393 6.51578 10.2393 6.24086L10.2393 1.49414L12.4805 1.49414C12.8924 1.49414 13.2275 1.82926 13.2275 2.24121V2.24121Z" fill="black"/>
</svg>
