<svg width="16" height="19" viewBox="0 0 16 19" fill="none" xmlns="http://www.w3.org/2000/svg">
<path d="M3 17.75V14.6056C3 14.2107 3.11688 13.8247 3.3359 13.4962L5.2604 10.6094C5.70827 9.9376 5.70827 9.0624 5.2604 8.3906L3.3359 5.50385C3.11688 5.17531 3 4.7893 3 4.39445V1.25" stroke="#212121" stroke-width="1.5" stroke-linecap="round" stroke-linejoin="round"/>
<path d="M13 17.75V14.6056C13 14.2107 12.8831 13.8247 12.6641 13.4962L10.7396 10.6094C10.2917 9.9376 10.2917 9.0624 10.7396 8.3906L12.6641 5.50385C12.8831 5.17531 13 4.7893 13 4.39445V1.25" stroke="#212121" stroke-width="1.5" stroke-linecap="round" stroke-linejoin="round"/>
<path d="M1 17.5C1 17.5 1.75 17.625 3 17.75C4.25 17.875 6 18 8 18C10 18 11.75 17.875 13 17.75C14.25 17.625 15 17.5 15 17.5" stroke="#212121" stroke-width="1.5" stroke-linecap="round" stroke-linejoin="round"/>
<path d="M1 1.5C1 1.5 1.75 1.375 3 1.25C4.25 1.125 6 1 8 1C10 1 11.75 1.125 13 1.25C14.25 1.375 15 1.5 15 1.5" stroke="#212121" stroke-width="1.5" stroke-linecap="round" stroke-linejoin="round"/>
</svg>
