<svg width="17" height="17" viewBox="0 0 17 17" fill="none" xmlns="http://www.w3.org/2000/svg">
<path d="M3.00154 3.62979C4.46289 2.16844 6.09509 1.04878 7.19909 0.370672C8.00368 -0.123558 8.99938 -0.123558 9.80398 0.370672C10.908 1.04878 12.5402 2.16844 14.0016 3.62979C17.1699 6.79819 17.0016 8.62979 17.0016 11.6298C17.0016 13.0396 16.8911 14.2286 16.7741 15.093C16.6509 16.0024 15.8577 16.6298 14.94 16.6298H13.5016C12.397 16.6298 11.5016 15.7344 11.5016 14.6298V12.6298C11.5016 11.8341 11.1855 11.0711 10.6229 10.5085C10.0603 9.94589 9.29718 9.62979 8.50159 9.62979C7.70588 9.62979 6.94289 9.94589 6.38023 10.5085C5.81762 11.0711 5.50154 11.8341 5.50154 12.6298V14.6298C5.50154 15.7344 4.60611 16.6298 3.50154 16.6298H2.0631C1.14536 16.6298 0.352195 16.0024 0.229035 15.0929C0.111975 14.2286 0.00155476 13.0396 0.00155476 11.6298C0.00155476 8.62979 -0.166845 6.79819 3.00154 3.62979Z" fill="white"/>
</svg>
