<svg width="37" height="37" viewBox="0 0 37 37" fill="none" xmlns="http://www.w3.org/2000/svg">
<path d="M18.5 10.6204C16.9416 10.6204 15.4181 11.0825 14.1223 11.9483C12.8265 12.8142 11.8166 14.0448 11.2202 15.4846C10.6238 16.9244 10.4677 18.5087 10.7718 20.0372C11.0758 21.5657 11.8263 22.9698 12.9283 24.0717C14.0302 25.1737 15.4343 25.9242 16.9628 26.2282C18.4913 26.5323 20.0756 26.3762 21.5154 25.7798C22.9552 25.1834 24.1858 24.1735 25.0517 22.8777C25.9175 21.5819 26.3796 20.0584 26.3796 18.5C26.3796 16.4102 25.5495 14.406 24.0717 12.9283C22.594 11.4505 20.5898 10.6204 18.5 10.6204ZM18.5 22.2685C17.7547 22.2685 17.0261 22.0475 16.4063 21.6334C15.7866 21.2193 15.3036 20.6308 15.0183 19.9422C14.7331 19.2535 14.6585 18.4958 14.8039 17.7648C14.9493 17.0338 15.3082 16.3623 15.8353 15.8353C16.3623 15.3082 17.0338 14.9493 17.7648 14.8039C18.4958 14.6585 19.2535 14.7331 19.9422 15.0183C20.6308 15.3036 21.2193 15.7866 21.6334 16.4063C22.0475 17.0261 22.2685 17.7547 22.2685 18.5C22.264 19.4981 21.8655 20.454 21.1598 21.1598C20.454 21.8655 19.4981 22.264 18.5 22.2685ZM26.7222 0H10.2778C7.55194 0 4.93775 1.08283 3.01029 3.01029C1.08283 4.93775 0 7.55194 0 10.2778V26.7222C0 29.4481 1.08283 32.0623 3.01029 33.9897C4.93775 35.9172 7.55194 37 10.2778 37H26.7222C29.4481 37 32.0623 35.9172 33.9897 33.9897C35.9172 32.0623 37 29.4481 37 26.7222V10.2778C37 7.55194 35.9172 4.93775 33.9897 3.01029C32.0623 1.08283 29.4481 0 26.7222 0ZM32.8889 26.7222C32.8889 28.3577 32.2392 29.9262 31.0827 31.0827C29.9262 32.2392 28.3577 32.8889 26.7222 32.8889H10.2778C8.64228 32.8889 7.07376 32.2392 5.91729 31.0827C4.76081 29.9262 4.11111 28.3577 4.11111 26.7222V10.2778C4.11111 8.64228 4.76081 7.07376 5.91729 5.91729C7.07376 4.76081 8.64228 4.11111 10.2778 4.11111H26.7222C28.3577 4.11111 29.9262 4.76081 31.0827 5.91729C32.2392 7.07376 32.8889 8.64228 32.8889 10.2778V26.7222ZM30.1481 9.59259C30.1481 10.1347 29.9874 10.6646 29.6863 11.1153C29.3851 11.566 28.9571 11.9173 28.4562 12.1247C27.9554 12.3321 27.4044 12.3864 26.8727 12.2807C26.3411 12.1749 25.8527 11.9139 25.4694 11.5306C25.0861 11.1473 24.8251 10.6589 24.7193 10.1273C24.6136 9.59563 24.6679 9.04456 24.8753 8.54376C25.0827 8.04295 25.434 7.61491 25.8847 7.31375C26.3354 7.01259 26.8653 6.85185 27.4074 6.85185C28.1343 6.85185 28.8314 7.14061 29.3454 7.6546C29.8594 8.16859 30.1481 8.8657 30.1481 9.59259Z" fill="white"/>
</svg>
