<svg width="21" height="21" viewBox="0 0 21 21" fill="none" xmlns="http://www.w3.org/2000/svg">
<path d="M1.18125 20.25C0.84375 20.25 0.5625 20.1375 0.3375 19.9125C0.1125 19.6875 0 19.4062 0 19.0688V14.5125C0 14.25 0.0843749 14.0201 0.253125 13.8229C0.421875 13.6256 0.6375 13.4992 0.9 13.4437L4.78125 12.6562C5.04375 12.6187 5.31112 12.6424 5.58337 12.7271C5.85563 12.8119 6.07575 12.9382 6.24375 13.1062L8.8875 15.75C10.3125 14.8875 11.6205 13.8656 12.8115 12.6844C14.0025 11.5031 14.9914 10.2375 15.7781 8.8875L13.05 6.13125C12.8813 5.9625 12.7736 5.77012 12.7271 5.55412C12.6806 5.33812 12.6758 5.09925 12.7125 4.8375L13.4437 0.9C13.4812 0.6375 13.6031 0.421875 13.8094 0.253125C14.0156 0.0843749 14.25 0 14.5125 0H19.0688C19.4062 0 19.6875 0.1125 19.9125 0.3375C20.1375 0.5625 20.25 0.84375 20.25 1.18125C20.25 3.6 19.7108 5.958 18.6322 8.25525C17.5537 10.5525 16.1287 12.5869 14.3573 14.3584C12.5858 16.1299 10.5514 17.5549 8.25412 18.6334C5.95687 19.7119 3.59925 20.2507 1.18125 20.25ZM16.8469 6.75C17.1656 6.01875 17.4094 5.27813 17.5781 4.52813C17.7469 3.77813 17.8781 3.01875 17.9719 2.25H15.4688L14.9906 4.89375L16.8469 6.75ZM6.77812 16.8188L4.89375 14.9344L2.25 15.4688V17.9438C3.01875 17.8875 3.783 17.7656 4.54275 17.5781C5.3025 17.3906 6.04762 17.1375 6.77812 16.8188Z" fill="#6A6A6A" fill-opacity="0.8"/>
</svg>
